# xmcd
#
# Track frame offsets:
#	150
#	17139
#	32449
#	50724
#	66630
#	81637
#	99706
#	117873
#	137133
#	154526
#	176127
#	191281
#	206849
#
# Disc length: 2969 seconds
#
# Revision: 1
# Processed by: cddbd v1.5.2PL0 Copyright (c) Steve Scherf et al.
# Submitted via: audiograbber 1.80
#
DISCID=bd0b970d
DTITLE=Simon Webbe - Grace
DYEAR=1900
DGENRE=
TTITLE0=Coming Around Again
TTITLE1=Seventeen
TTITLE2=Sunshine (Love Like That)
TTITLE3=Go To Sleep
TTITLE4=Ain't True To Yourself
TTITLE5=Don't Wanna Be That Man
TTITLE6=Angel (My Life Began With You)
TTITLE7=Fool For You
TTITLE8=My Soul Pleads For You
TTITLE9=That's The Way It Goes
TTITLE10=Take Your Time
TTITLE11=Grace
TTITLE12=No Worries (Live  Acoustic at Midem in Cannes 2007)
EXTD=
EXTT0=
EXTT1=
EXTT2=
EXTT3=
EXTT4=
EXTT5=
EXTT6=
EXTT7=
EXTT8=
EXTT9=
EXTT10=
EXTT11=
EXTT12=
PLAYORDER=
